<mxfile host="app.diagrams.net" modified="2023-12-05T22:42:12.247Z" agent="Mozilla/5.0 (Windows NT 10.0; Win64; x64) AppleWebKit/537.36 (KHTML, like Gecko) Chrome/118.0.0.0 Safari/537.36 OPR/104.0.0.0" etag="dfr--XjmhQqFnGpXoNve" version="22.1.5" type="google">
  <diagram name="Page-1" id="A26miGyZrJTGK2NVi7Yx">
    <mxGraphModel grid="1" page="1" gridSize="10" guides="1" tooltips="1" connect="1" arrows="1" fold="1" pageScale="1" pageWidth="850" pageHeight="1100" math="0" shadow="0">
      <root>
        <mxCell id="0" />
        <mxCell id="1" parent="0" />
        <mxCell id="7SC74yxhidFT1gA2fIfa-1" value="Export Solid" style="rounded=0;whiteSpace=wrap;html=1;" vertex="1" parent="1">
          <mxGeometry x="425" y="580" width="120" height="60" as="geometry" />
        </mxCell>
        <mxCell id="7SC74yxhidFT1gA2fIfa-2" value="Couple Solids" style="rounded=0;whiteSpace=wrap;html=1;" vertex="1" parent="1">
          <mxGeometry x="185" y="580" width="120" height="60" as="geometry" />
        </mxCell>
        <mxCell id="7SC74yxhidFT1gA2fIfa-3" value="" style="shape=flexArrow;endArrow=classic;html=1;rounded=0;exitX=1;exitY=0.5;exitDx=0;exitDy=0;" edge="1" parent="1" source="7SC74yxhidFT1gA2fIfa-1">
          <mxGeometry width="50" height="50" relative="1" as="geometry">
            <mxPoint x="535" y="770" as="sourcePoint" />
            <mxPoint x="665" y="610" as="targetPoint" />
          </mxGeometry>
        </mxCell>
        <mxCell id="7SC74yxhidFT1gA2fIfa-4" value="Stitched Cloth" style="edgeLabel;html=1;align=center;verticalAlign=middle;resizable=0;points=[];" connectable="0" vertex="1" parent="7SC74yxhidFT1gA2fIfa-3">
          <mxGeometry x="-0.2062" y="-1" relative="1" as="geometry">
            <mxPoint x="11" y="-1" as="offset" />
          </mxGeometry>
        </mxCell>
        <mxCell id="7SC74yxhidFT1gA2fIfa-6" value="" style="shape=flexArrow;endArrow=classic;html=1;rounded=0;exitX=1;exitY=0.5;exitDx=0;exitDy=0;" edge="1" parent="1" source="7SC74yxhidFT1gA2fIfa-2" target="7SC74yxhidFT1gA2fIfa-1">
          <mxGeometry width="50" height="50" relative="1" as="geometry">
            <mxPoint x="535" y="770" as="sourcePoint" />
            <mxPoint x="585" y="720" as="targetPoint" />
          </mxGeometry>
        </mxCell>
        <mxCell id="7SC74yxhidFT1gA2fIfa-7" value="Stitched Cloth" style="edgeLabel;html=1;align=center;verticalAlign=middle;resizable=0;points=[];" connectable="0" vertex="1" parent="7SC74yxhidFT1gA2fIfa-6">
          <mxGeometry x="-0.3085" y="1" relative="1" as="geometry">
            <mxPoint x="8" y="1" as="offset" />
          </mxGeometry>
        </mxCell>
        <mxCell id="7SC74yxhidFT1gA2fIfa-8" value="Import Thread&amp;nbsp;" style="rounded=0;whiteSpace=wrap;html=1;" vertex="1" parent="1">
          <mxGeometry x="-795" y="240" width="120" height="60" as="geometry" />
        </mxCell>
        <mxCell id="7SC74yxhidFT1gA2fIfa-9" value="Import Cloth" style="rounded=0;whiteSpace=wrap;html=1;" vertex="1" parent="1">
          <mxGeometry x="-795" y="840" width="120" height="60" as="geometry" />
        </mxCell>
        <mxCell id="7SC74yxhidFT1gA2fIfa-10" value="Import&amp;nbsp; Human Energy 1 (Crank)" style="rounded=0;whiteSpace=wrap;html=1;" vertex="1" parent="1">
          <mxGeometry x="-795" y="580" width="120" height="60" as="geometry" />
        </mxCell>
        <mxCell id="7SC74yxhidFT1gA2fIfa-11" value="Convert HE to ME" style="rounded=0;whiteSpace=wrap;html=1;" vertex="1" parent="1">
          <mxGeometry x="-590" y="580" width="120" height="60" as="geometry" />
        </mxCell>
        <mxCell id="7SC74yxhidFT1gA2fIfa-12" value="" style="endArrow=classic;html=1;rounded=0;exitX=1;exitY=0.5;exitDx=0;exitDy=0;" edge="1" parent="1" source="7SC74yxhidFT1gA2fIfa-10">
          <mxGeometry width="50" height="50" relative="1" as="geometry">
            <mxPoint x="-345" y="670" as="sourcePoint" />
            <mxPoint x="-595" y="610" as="targetPoint" />
          </mxGeometry>
        </mxCell>
        <mxCell id="7SC74yxhidFT1gA2fIfa-13" value="HE" style="edgeLabel;html=1;align=center;verticalAlign=middle;resizable=0;points=[];" connectable="0" vertex="1" parent="7SC74yxhidFT1gA2fIfa-12">
          <mxGeometry x="-0.032" relative="1" as="geometry">
            <mxPoint as="offset" />
          </mxGeometry>
        </mxCell>
        <mxCell id="7SC74yxhidFT1gA2fIfa-14" value="" style="endArrow=classic;html=1;rounded=0;exitX=1;exitY=0.5;exitDx=0;exitDy=0;entryX=0;entryY=0.5;entryDx=0;entryDy=0;" edge="1" parent="1" source="7SC74yxhidFT1gA2fIfa-11" target="7SC74yxhidFT1gA2fIfa-17">
          <mxGeometry width="50" height="50" relative="1" as="geometry">
            <mxPoint x="-260" y="640" as="sourcePoint" />
            <mxPoint x="-360" y="610" as="targetPoint" />
          </mxGeometry>
        </mxCell>
        <mxCell id="7SC74yxhidFT1gA2fIfa-15" value="ME" style="edgeLabel;html=1;align=center;verticalAlign=middle;resizable=0;points=[];" connectable="0" vertex="1" parent="7SC74yxhidFT1gA2fIfa-14">
          <mxGeometry x="0.0001" relative="1" as="geometry">
            <mxPoint as="offset" />
          </mxGeometry>
        </mxCell>
        <mxCell id="7SC74yxhidFT1gA2fIfa-17" value="Distribute ME" style="rounded=0;whiteSpace=wrap;html=1;" vertex="1" parent="1">
          <mxGeometry x="-385" y="580" width="120" height="60" as="geometry" />
        </mxCell>
        <mxCell id="7SC74yxhidFT1gA2fIfa-19" value="Import Human Energy 2 (CS)" style="rounded=0;whiteSpace=wrap;html=1;" vertex="1" parent="1">
          <mxGeometry x="-795" y="350" width="120" height="60" as="geometry" />
        </mxCell>
        <mxCell id="7SC74yxhidFT1gA2fIfa-20" value="Convert HE to CS" style="rounded=0;whiteSpace=wrap;html=1;" vertex="1" parent="1">
          <mxGeometry x="-590" y="350" width="120" height="60" as="geometry" />
        </mxCell>
        <mxCell id="7SC74yxhidFT1gA2fIfa-21" value="" style="endArrow=classic;html=1;rounded=0;exitX=1;exitY=0.5;exitDx=0;exitDy=0;entryX=0;entryY=0.5;entryDx=0;entryDy=0;" edge="1" parent="1" source="7SC74yxhidFT1gA2fIfa-19" target="7SC74yxhidFT1gA2fIfa-20">
          <mxGeometry width="50" height="50" relative="1" as="geometry">
            <mxPoint x="-305" y="570" as="sourcePoint" />
            <mxPoint x="145" y="530" as="targetPoint" />
          </mxGeometry>
        </mxCell>
        <mxCell id="7SC74yxhidFT1gA2fIfa-22" value="HE" style="edgeLabel;html=1;align=center;verticalAlign=middle;resizable=0;points=[];" connectable="0" vertex="1" parent="7SC74yxhidFT1gA2fIfa-21">
          <mxGeometry x="-0.0142" relative="1" as="geometry">
            <mxPoint as="offset" />
          </mxGeometry>
        </mxCell>
        <mxCell id="7SC74yxhidFT1gA2fIfa-23" value="" style="endArrow=classic;html=1;rounded=0;exitX=1;exitY=0.5;exitDx=0;exitDy=0;dashed=1;entryX=0;entryY=0.5;entryDx=0;entryDy=0;" edge="1" parent="1" source="7SC74yxhidFT1gA2fIfa-20" target="7SC74yxhidFT1gA2fIfa-25">
          <mxGeometry width="50" height="50" relative="1" as="geometry">
            <mxPoint x="155" y="550" as="sourcePoint" />
            <mxPoint x="70" y="380" as="targetPoint" />
          </mxGeometry>
        </mxCell>
        <mxCell id="7SC74yxhidFT1gA2fIfa-24" value="Thread Tension CS" style="edgeLabel;html=1;align=center;verticalAlign=middle;resizable=0;points=[];" connectable="0" vertex="1" parent="7SC74yxhidFT1gA2fIfa-23">
          <mxGeometry x="-0.0399" relative="1" as="geometry">
            <mxPoint as="offset" />
          </mxGeometry>
        </mxCell>
        <mxCell id="7SC74yxhidFT1gA2fIfa-25" value="Regulate Thread" style="rounded=0;whiteSpace=wrap;html=1;" vertex="1" parent="1">
          <mxGeometry x="185" y="350" width="120" height="60" as="geometry" />
        </mxCell>
        <mxCell id="7SC74yxhidFT1gA2fIfa-28" value="Guide Cloth" style="rounded=0;whiteSpace=wrap;html=1;" vertex="1" parent="1">
          <mxGeometry x="185" y="710" width="120" height="60" as="geometry" />
        </mxCell>
        <mxCell id="7SC74yxhidFT1gA2fIfa-30" value="" style="shape=flexArrow;endArrow=classic;html=1;rounded=0;exitX=1;exitY=0.5;exitDx=0;exitDy=0;entryX=0;entryY=0.5;entryDx=0;entryDy=0;" edge="1" parent="1" source="7SC74yxhidFT1gA2fIfa-9" target="5_n7yxGM97qBp8USQ3Jw-1">
          <mxGeometry width="50" height="50" relative="1" as="geometry">
            <mxPoint x="-465" y="770" as="sourcePoint" />
            <mxPoint x="-290" y="860" as="targetPoint" />
          </mxGeometry>
        </mxCell>
        <mxCell id="7SC74yxhidFT1gA2fIfa-31" value="Cloth" style="edgeLabel;html=1;align=center;verticalAlign=middle;resizable=0;points=[];" connectable="0" vertex="1" parent="7SC74yxhidFT1gA2fIfa-30">
          <mxGeometry x="-0.4499" relative="1" as="geometry">
            <mxPoint x="8" as="offset" />
          </mxGeometry>
        </mxCell>
        <mxCell id="7SC74yxhidFT1gA2fIfa-33" value="" style="endArrow=classic;html=1;rounded=0;exitX=0.5;exitY=1;exitDx=0;exitDy=0;entryX=0;entryY=0.5;entryDx=0;entryDy=0;" edge="1" parent="1" source="7SC74yxhidFT1gA2fIfa-17" target="5_n7yxGM97qBp8USQ3Jw-7">
          <mxGeometry width="50" height="50" relative="1" as="geometry">
            <mxPoint x="-195" y="720" as="sourcePoint" />
            <mxPoint x="-325" y="690" as="targetPoint" />
            <Array as="points">
              <mxPoint x="-325" y="740" />
            </Array>
          </mxGeometry>
        </mxCell>
        <mxCell id="7SC74yxhidFT1gA2fIfa-34" value="ME" style="edgeLabel;html=1;align=center;verticalAlign=middle;resizable=0;points=[];" connectable="0" vertex="1" parent="7SC74yxhidFT1gA2fIfa-33">
          <mxGeometry x="-0.3597" y="1" relative="1" as="geometry">
            <mxPoint x="59" y="25" as="offset" />
          </mxGeometry>
        </mxCell>
        <mxCell id="7SC74yxhidFT1gA2fIfa-37" value="Guide Thread&amp;nbsp;" style="rounded=0;whiteSpace=wrap;html=1;" vertex="1" parent="1">
          <mxGeometry x="185" y="460" width="120" height="60" as="geometry" />
        </mxCell>
        <mxCell id="7SC74yxhidFT1gA2fIfa-39" value="Change ME" style="rounded=0;whiteSpace=wrap;html=1;" vertex="1" parent="1">
          <mxGeometry x="-190" y="460" width="120" height="60" as="geometry" />
        </mxCell>
        <mxCell id="7SC74yxhidFT1gA2fIfa-40" value="" style="endArrow=classic;html=1;rounded=0;entryX=0;entryY=0.5;entryDx=0;entryDy=0;exitX=0.5;exitY=0;exitDx=0;exitDy=0;" edge="1" parent="1" source="7SC74yxhidFT1gA2fIfa-17" target="7SC74yxhidFT1gA2fIfa-39">
          <mxGeometry width="50" height="50" relative="1" as="geometry">
            <mxPoint x="-165" y="660" as="sourcePoint" />
            <mxPoint x="-115" y="610" as="targetPoint" />
            <Array as="points">
              <mxPoint x="-325" y="490" />
            </Array>
          </mxGeometry>
        </mxCell>
        <mxCell id="7SC74yxhidFT1gA2fIfa-41" value="ME" style="edgeLabel;html=1;align=center;verticalAlign=middle;resizable=0;points=[];" connectable="0" vertex="1" parent="7SC74yxhidFT1gA2fIfa-40">
          <mxGeometry x="-0.088" y="1" relative="1" as="geometry">
            <mxPoint x="48" y="1" as="offset" />
          </mxGeometry>
        </mxCell>
        <mxCell id="7SC74yxhidFT1gA2fIfa-46" value="" style="shape=flexArrow;endArrow=classic;html=1;rounded=0;exitX=1;exitY=0.5;exitDx=0;exitDy=0;entryX=0.5;entryY=0;entryDx=0;entryDy=0;" edge="1" parent="1" source="7SC74yxhidFT1gA2fIfa-8" target="7SC74yxhidFT1gA2fIfa-25">
          <mxGeometry width="50" height="50" relative="1" as="geometry">
            <mxPoint x="-40" y="650" as="sourcePoint" />
            <mxPoint x="250" y="461" as="targetPoint" />
            <Array as="points">
              <mxPoint x="245" y="270" />
            </Array>
          </mxGeometry>
        </mxCell>
        <mxCell id="7SC74yxhidFT1gA2fIfa-47" value="Thread" style="edgeLabel;html=1;align=center;verticalAlign=middle;resizable=0;points=[];" connectable="0" vertex="1" parent="7SC74yxhidFT1gA2fIfa-46">
          <mxGeometry x="-0.008" y="2" relative="1" as="geometry">
            <mxPoint x="-29" y="2" as="offset" />
          </mxGeometry>
        </mxCell>
        <mxCell id="7SC74yxhidFT1gA2fIfa-49" value="Transfer ME" style="rounded=0;whiteSpace=wrap;html=1;" vertex="1" parent="1">
          <mxGeometry y="710" width="120" height="60" as="geometry" />
        </mxCell>
        <mxCell id="7SC74yxhidFT1gA2fIfa-50" value="Transfer ME" style="rounded=0;whiteSpace=wrap;html=1;" vertex="1" parent="1">
          <mxGeometry y="460" width="120" height="60" as="geometry" />
        </mxCell>
        <mxCell id="7SC74yxhidFT1gA2fIfa-51" value="" style="endArrow=classic;html=1;rounded=0;exitX=1;exitY=0.5;exitDx=0;exitDy=0;" edge="1" parent="1" source="7SC74yxhidFT1gA2fIfa-39" target="7SC74yxhidFT1gA2fIfa-50">
          <mxGeometry width="50" height="50" relative="1" as="geometry">
            <mxPoint x="-190" y="760" as="sourcePoint" />
            <mxPoint x="-140" y="710" as="targetPoint" />
          </mxGeometry>
        </mxCell>
        <mxCell id="7SC74yxhidFT1gA2fIfa-52" value="ME" style="edgeLabel;html=1;align=center;verticalAlign=middle;resizable=0;points=[];" connectable="0" vertex="1" parent="7SC74yxhidFT1gA2fIfa-51">
          <mxGeometry x="-0.0601" y="-2" relative="1" as="geometry">
            <mxPoint as="offset" />
          </mxGeometry>
        </mxCell>
        <mxCell id="7SC74yxhidFT1gA2fIfa-53" value="" style="endArrow=classic;html=1;rounded=0;exitX=1;exitY=0.5;exitDx=0;exitDy=0;entryX=0;entryY=0.5;entryDx=0;entryDy=0;" edge="1" parent="1" source="7SC74yxhidFT1gA2fIfa-50" target="7SC74yxhidFT1gA2fIfa-37">
          <mxGeometry width="50" height="50" relative="1" as="geometry">
            <mxPoint x="50" y="570" as="sourcePoint" />
            <mxPoint x="-140" y="710" as="targetPoint" />
          </mxGeometry>
        </mxCell>
        <mxCell id="7SC74yxhidFT1gA2fIfa-54" value="ME" style="edgeLabel;html=1;align=center;verticalAlign=middle;resizable=0;points=[];" connectable="0" vertex="1" parent="7SC74yxhidFT1gA2fIfa-53">
          <mxGeometry x="0.0046" y="-3" relative="1" as="geometry">
            <mxPoint as="offset" />
          </mxGeometry>
        </mxCell>
        <mxCell id="7SC74yxhidFT1gA2fIfa-55" value="" style="endArrow=classic;html=1;rounded=0;exitX=1;exitY=0.5;exitDx=0;exitDy=0;" edge="1" parent="1" source="7SC74yxhidFT1gA2fIfa-49" target="7SC74yxhidFT1gA2fIfa-28">
          <mxGeometry width="50" height="50" relative="1" as="geometry">
            <mxPoint x="-430" y="740" as="sourcePoint" />
            <mxPoint x="-380" y="690" as="targetPoint" />
          </mxGeometry>
        </mxCell>
        <mxCell id="7SC74yxhidFT1gA2fIfa-56" value="ME" style="edgeLabel;html=1;align=center;verticalAlign=middle;resizable=0;points=[];" connectable="0" vertex="1" parent="7SC74yxhidFT1gA2fIfa-55">
          <mxGeometry x="-0.272" y="-2" relative="1" as="geometry">
            <mxPoint as="offset" />
          </mxGeometry>
        </mxCell>
        <mxCell id="8_u4euLSDL0EcBGsmFE7-2" value="" style="shape=flexArrow;endArrow=classic;html=1;rounded=0;entryX=0.75;entryY=1;entryDx=0;entryDy=0;exitX=0.75;exitY=0;exitDx=0;exitDy=0;" edge="1" parent="1" source="7SC74yxhidFT1gA2fIfa-28" target="7SC74yxhidFT1gA2fIfa-2">
          <mxGeometry width="50" height="50" relative="1" as="geometry">
            <mxPoint x="-40" y="700" as="sourcePoint" />
            <mxPoint x="10" y="650" as="targetPoint" />
          </mxGeometry>
        </mxCell>
        <mxCell id="8_u4euLSDL0EcBGsmFE7-3" value="Cloth" style="edgeLabel;html=1;align=center;verticalAlign=middle;resizable=0;points=[];" connectable="0" vertex="1" parent="8_u4euLSDL0EcBGsmFE7-2">
          <mxGeometry x="-0.08" relative="1" as="geometry">
            <mxPoint as="offset" />
          </mxGeometry>
        </mxCell>
        <mxCell id="8_u4euLSDL0EcBGsmFE7-4" value="Thread" style="shape=flexArrow;endArrow=classic;html=1;rounded=0;entryX=0.75;entryY=0;entryDx=0;entryDy=0;exitX=0.75;exitY=1;exitDx=0;exitDy=0;" edge="1" parent="1" source="7SC74yxhidFT1gA2fIfa-37" target="7SC74yxhidFT1gA2fIfa-2">
          <mxGeometry width="50" height="50" relative="1" as="geometry">
            <mxPoint x="220" y="580" as="sourcePoint" />
            <mxPoint x="535" y="460" as="targetPoint" />
          </mxGeometry>
        </mxCell>
        <mxCell id="8_u4euLSDL0EcBGsmFE7-5" value="" style="endArrow=classic;html=1;rounded=0;exitX=0.25;exitY=1;exitDx=0;exitDy=0;entryX=0.25;entryY=0;entryDx=0;entryDy=0;" edge="1" parent="1" source="7SC74yxhidFT1gA2fIfa-37" target="7SC74yxhidFT1gA2fIfa-2">
          <mxGeometry width="50" height="50" relative="1" as="geometry">
            <mxPoint x="-40" y="700" as="sourcePoint" />
            <mxPoint x="10" y="650" as="targetPoint" />
          </mxGeometry>
        </mxCell>
        <mxCell id="8_u4euLSDL0EcBGsmFE7-6" value="ME" style="edgeLabel;html=1;align=center;verticalAlign=middle;resizable=0;points=[];" connectable="0" vertex="1" parent="8_u4euLSDL0EcBGsmFE7-5">
          <mxGeometry x="-0.1844" y="-3" relative="1" as="geometry">
            <mxPoint as="offset" />
          </mxGeometry>
        </mxCell>
        <mxCell id="8_u4euLSDL0EcBGsmFE7-7" value="" style="endArrow=classic;html=1;rounded=0;entryX=0.25;entryY=1;entryDx=0;entryDy=0;exitX=0.25;exitY=0;exitDx=0;exitDy=0;" edge="1" parent="1" source="7SC74yxhidFT1gA2fIfa-28" target="7SC74yxhidFT1gA2fIfa-2">
          <mxGeometry width="50" height="50" relative="1" as="geometry">
            <mxPoint x="-40" y="700" as="sourcePoint" />
            <mxPoint x="10" y="650" as="targetPoint" />
          </mxGeometry>
        </mxCell>
        <mxCell id="8_u4euLSDL0EcBGsmFE7-8" value="ME" style="edgeLabel;html=1;align=center;verticalAlign=middle;resizable=0;points=[];" connectable="0" vertex="1" parent="8_u4euLSDL0EcBGsmFE7-7">
          <mxGeometry x="0.0628" y="3" relative="1" as="geometry">
            <mxPoint as="offset" />
          </mxGeometry>
        </mxCell>
        <mxCell id="5_n7yxGM97qBp8USQ3Jw-1" value="Secure Cloth" style="rounded=0;whiteSpace=wrap;html=1;" vertex="1" parent="1">
          <mxGeometry x="-590" y="840" width="120" height="60" as="geometry" />
        </mxCell>
        <mxCell id="5_n7yxGM97qBp8USQ3Jw-4" value="" style="shape=flexArrow;endArrow=classic;html=1;rounded=0;exitX=1;exitY=0.5;exitDx=0;exitDy=0;entryX=0;entryY=0.5;entryDx=0;entryDy=0;" edge="1" parent="1" source="5_n7yxGM97qBp8USQ3Jw-1" target="-SjZr9nm1TZwPgJ2K2BF-4">
          <mxGeometry width="50" height="50" relative="1" as="geometry">
            <mxPoint x="70" y="850" as="sourcePoint" />
            <mxPoint x="130" y="870" as="targetPoint" />
          </mxGeometry>
        </mxCell>
        <mxCell id="5_n7yxGM97qBp8USQ3Jw-5" value="Cloth" style="edgeLabel;html=1;align=center;verticalAlign=middle;resizable=0;points=[];" connectable="0" vertex="1" parent="5_n7yxGM97qBp8USQ3Jw-4">
          <mxGeometry x="-0.0819" y="-4" relative="1" as="geometry">
            <mxPoint x="-7" y="-4" as="offset" />
          </mxGeometry>
        </mxCell>
        <mxCell id="5_n7yxGM97qBp8USQ3Jw-7" value="Change ME&lt;br&gt;(Belt)" style="rounded=0;whiteSpace=wrap;html=1;" vertex="1" parent="1">
          <mxGeometry x="-190" y="710" width="120" height="60" as="geometry" />
        </mxCell>
        <mxCell id="5_n7yxGM97qBp8USQ3Jw-8" value="" style="endArrow=classic;html=1;rounded=0;entryX=0;entryY=0.5;entryDx=0;entryDy=0;" edge="1" parent="1" target="7SC74yxhidFT1gA2fIfa-49">
          <mxGeometry width="50" height="50" relative="1" as="geometry">
            <mxPoint x="-70" y="740" as="sourcePoint" />
            <mxPoint x="-20" y="690" as="targetPoint" />
          </mxGeometry>
        </mxCell>
        <mxCell id="5_n7yxGM97qBp8USQ3Jw-9" value="ME" style="edgeLabel;html=1;align=center;verticalAlign=middle;resizable=0;points=[];" connectable="0" vertex="1" parent="5_n7yxGM97qBp8USQ3Jw-8">
          <mxGeometry x="-0.0733" y="1" relative="1" as="geometry">
            <mxPoint as="offset" />
          </mxGeometry>
        </mxCell>
        <mxCell id="5_n7yxGM97qBp8USQ3Jw-13" value="" style="shape=flexArrow;endArrow=classic;html=1;rounded=0;exitX=0.5;exitY=1;exitDx=0;exitDy=0;entryX=0.5;entryY=0;entryDx=0;entryDy=0;" edge="1" parent="1" source="7SC74yxhidFT1gA2fIfa-25" target="7SC74yxhidFT1gA2fIfa-37">
          <mxGeometry width="50" height="50" relative="1" as="geometry">
            <mxPoint x="50" y="440" as="sourcePoint" />
            <mxPoint x="100" y="390" as="targetPoint" />
          </mxGeometry>
        </mxCell>
        <mxCell id="5_n7yxGM97qBp8USQ3Jw-14" value="Thread" style="edgeLabel;html=1;align=center;verticalAlign=middle;resizable=0;points=[];" connectable="0" vertex="1" parent="5_n7yxGM97qBp8USQ3Jw-13">
          <mxGeometry x="-0.299" y="1" relative="1" as="geometry">
            <mxPoint as="offset" />
          </mxGeometry>
        </mxCell>
        <mxCell id="-SjZr9nm1TZwPgJ2K2BF-7" style="edgeStyle=orthogonalEdgeStyle;rounded=0;orthogonalLoop=1;jettySize=auto;html=1;exitX=1;exitY=0.5;exitDx=0;exitDy=0;entryX=0.5;entryY=1;entryDx=0;entryDy=0;dashed=1;" edge="1" parent="1" source="-SjZr9nm1TZwPgJ2K2BF-2" target="-SjZr9nm1TZwPgJ2K2BF-4">
          <mxGeometry relative="1" as="geometry" />
        </mxCell>
        <mxCell id="-SjZr9nm1TZwPgJ2K2BF-8" value="Stitch Length CS" style="edgeLabel;html=1;align=center;verticalAlign=middle;resizable=0;points=[];" connectable="0" vertex="1" parent="-SjZr9nm1TZwPgJ2K2BF-7">
          <mxGeometry x="-0.1569" y="1" relative="1" as="geometry">
            <mxPoint as="offset" />
          </mxGeometry>
        </mxCell>
        <mxCell id="-SjZr9nm1TZwPgJ2K2BF-2" value="Convert HE to CS" style="rounded=0;whiteSpace=wrap;html=1;" vertex="1" parent="1">
          <mxGeometry x="-590" y="990" width="120" height="60" as="geometry" />
        </mxCell>
        <mxCell id="-SjZr9nm1TZwPgJ2K2BF-5" style="edgeStyle=orthogonalEdgeStyle;rounded=0;orthogonalLoop=1;jettySize=auto;html=1;exitX=1;exitY=0.5;exitDx=0;exitDy=0;" edge="1" parent="1" source="-SjZr9nm1TZwPgJ2K2BF-3" target="-SjZr9nm1TZwPgJ2K2BF-2">
          <mxGeometry relative="1" as="geometry" />
        </mxCell>
        <mxCell id="-SjZr9nm1TZwPgJ2K2BF-6" value="HE" style="edgeLabel;html=1;align=center;verticalAlign=middle;resizable=0;points=[];" connectable="0" vertex="1" parent="-SjZr9nm1TZwPgJ2K2BF-5">
          <mxGeometry x="-0.0351" y="1" relative="1" as="geometry">
            <mxPoint as="offset" />
          </mxGeometry>
        </mxCell>
        <mxCell id="-SjZr9nm1TZwPgJ2K2BF-3" value="Import Human Energy 3" style="rounded=0;whiteSpace=wrap;html=1;" vertex="1" parent="1">
          <mxGeometry x="-795" y="990" width="120" height="60" as="geometry" />
        </mxCell>
        <mxCell id="-SjZr9nm1TZwPgJ2K2BF-4" value="Regulate Cloth" style="rounded=0;whiteSpace=wrap;html=1;" vertex="1" parent="1">
          <mxGeometry x="185" y="840" width="120" height="60" as="geometry" />
        </mxCell>
        <mxCell id="-SjZr9nm1TZwPgJ2K2BF-10" value="" style="shape=flexArrow;endArrow=classic;html=1;rounded=0;entryX=0.5;entryY=1;entryDx=0;entryDy=0;exitX=0.5;exitY=0;exitDx=0;exitDy=0;" edge="1" parent="1" source="-SjZr9nm1TZwPgJ2K2BF-4" target="7SC74yxhidFT1gA2fIfa-28">
          <mxGeometry width="50" height="50" relative="1" as="geometry">
            <mxPoint x="275" y="840" as="sourcePoint" />
            <mxPoint x="-50" y="690" as="targetPoint" />
          </mxGeometry>
        </mxCell>
        <mxCell id="-SjZr9nm1TZwPgJ2K2BF-11" value="Cloth" style="edgeLabel;html=1;align=center;verticalAlign=middle;resizable=0;points=[];" connectable="0" vertex="1" parent="-SjZr9nm1TZwPgJ2K2BF-10">
          <mxGeometry x="0.0925" relative="1" as="geometry">
            <mxPoint as="offset" />
          </mxGeometry>
        </mxCell>
      </root>
    </mxGraphModel>
  </diagram>
</mxfile>
